<svg xmlns="http://www.w3.org/2000/svg" width="30" height="30" viewBox="0 0 30 30">
  <path id="Path_29004" data-name="Path 29004" d="M-10.727-120.584q-3.764.749-5.291,5.758a16.543,16.543,0,0,0-.764,4.894,3.727,3.727,0,0,0,.027.489q.027.2.082.893h5.945V-96H-22.345v-11.574q0-8.522,3.218-13.129a11.852,11.852,0,0,1,8.4-5.3Zm18.382,0a6.156,6.156,0,0,0-4.555,3.57,15.268,15.268,0,0,0-1.555,7.025q0,.345.027.691a4.125,4.125,0,0,0,.136.749H7.655V-96H-4.017v-11.574A26.7,26.7,0,0,1-1.29-119.807,11.006,11.006,0,0,1,7.655-126Z" transform="translate(22.345 125.997)" fill="#bebebe"/>
</svg>
