<svg xmlns="http://www.w3.org/2000/svg" width="87" height="24" viewBox="0 0 87 24">
  <g id="Group_30515" data-name="Group 30515" transform="translate(-92.179 -30)">
    <path id="Path_1" data-name="Path 1" d="M111.544,30H97.02a4.821,4.821,0,0,0-4.841,4.8V49.2A4.821,4.821,0,0,0,97.02,54h14.524a4.847,4.847,0,0,0,3.214-1.21,4.77,4.77,0,0,0,1.628-3.59V34.8A4.821,4.821,0,0,0,111.544,30Zm-.176,2.406a2.426,2.426,0,0,1,1.216.227l.008,0,.07.035.035.018.049.028.052.03a2.394,2.394,0,0,1,1.159,2.237,2.42,2.42,0,1,1-2.59-2.578ZM97.02,51.6A2.41,2.41,0,0,1,94.6,49.2V34.8a2.41,2.41,0,0,1,2.421-2.4h.648a4.744,4.744,0,0,0-.648,2.4V45.565a4.788,4.788,0,0,0,2.041,3.916l3.015,2.119Zm14.537,0h-4.523a2.42,2.42,0,0,1-1.4-.442l-5.173-3.635a2.4,2.4,0,0,1-1.021-1.958V34.8a2.41,2.41,0,0,1,2.421-2.4h.648a4.744,4.744,0,0,0-.648,2.4v6a4.786,4.786,0,0,0,1.937,3.84l8.07,6A.532.532,0,0,1,111.557,51.6Zm2.408-3.466a.538.538,0,0,1-.86.426l-7.854-5.84a2.4,2.4,0,0,1-.968-1.92v-6a2.41,2.41,0,0,1,2.421-2.4h.649a4.742,4.742,0,0,0-.649,2.4,4.821,4.821,0,0,0,4.841,4.8h0a4.849,4.849,0,0,0,2.421-.644Z" transform="translate(0)" fill="#fff"/>
    <path id="Path_2" data-name="Path 2" d="M175.023,49.662A5.073,5.073,0,0,0,177.3,47.91a4.879,4.879,0,0,0,.847-2.928A4.767,4.767,0,0,0,176.4,41.01a7.487,7.487,0,0,0-4.769-1.38h-6.439a.564.564,0,0,0-.412.168.582.582,0,0,0-.169.432v15.6a.581.581,0,0,0,.169.432.562.562,0,0,0,.412.168h2.663a.592.592,0,0,0,.436-.168.583.583,0,0,0,.169-.432V50.286h2.929l2.953,5.5a1.8,1.8,0,0,0,.315.42.865.865,0,0,0,.654.228h2.711a.488.488,0,0,0,.351-.156.48.48,0,0,0,.157-.348.594.594,0,0,0-.073-.264Zm-1.489-3.024a2.766,2.766,0,0,1-1.949.6h-3.123V42.63h3.123a2.692,2.692,0,0,1,1.961.624,2.293,2.293,0,0,1,.629,1.7A2.188,2.188,0,0,1,173.534,46.638Z" transform="translate(-43.211 -5.778)" fill="#fff"/>
    <path id="Path_3" data-name="Path 3" d="M210.635,51.2a4.491,4.491,0,0,0-1.755-1.008,8.375,8.375,0,0,0-2.614-.36,7.548,7.548,0,0,0-2.481.36,5.437,5.437,0,0,0-1.682.9,4.076,4.076,0,0,0-.968,1.092,2.013,2.013,0,0,0-.315.96.448.448,0,0,0,.121.372.534.534,0,0,0,.412.156h2.3a.64.64,0,0,0,.581-.312,2.184,2.184,0,0,1,.738-.816,2.276,2.276,0,0,1,1.27-.312,1.937,1.937,0,0,1,1.525.5,2.14,2.14,0,0,1,.436,1.44v.432l-3.171.456a8.629,8.629,0,0,0-3.667,1.344,3.256,3.256,0,0,0-.787,4.56A4.212,4.212,0,0,0,202.2,62.3a5.217,5.217,0,0,0,2.3.492,5.626,5.626,0,0,0,1.731-.24,4.382,4.382,0,0,0,1.271-.636,3.693,3.693,0,0,0,.847-.852v.888a.581.581,0,0,0,.169.432.561.561,0,0,0,.411.168h2.4a.564.564,0,0,0,.411-.168.583.583,0,0,0,.169-.432V54.534a5.447,5.447,0,0,0-.3-1.836A3.888,3.888,0,0,0,210.635,51.2Zm-2.384,5.976a3.76,3.76,0,0,1-.363,1.752,2.373,2.373,0,0,1-.992,1.032,2.987,2.987,0,0,1-1.429.336,2.539,2.539,0,0,1-.956-.18,1.84,1.84,0,0,1-.726-.5,1.157,1.157,0,0,1-.278-.78,1.267,1.267,0,0,1,.605-1.056A4.653,4.653,0,0,1,206,57.126l2.251-.36Z" transform="translate(-64.304 -11.898)" fill="#fff"/>
    <path id="Path_4" data-name="Path 4" d="M236.99,37.77h-2.566a.544.544,0,0,0-.411.18.594.594,0,0,0-.169.42v1.944a.581.581,0,0,0,.169.432.563.563,0,0,0,.411.168h2.566a.6.6,0,0,0,.424-.168.561.561,0,0,0,.182-.432V38.37a.574.574,0,0,0-.182-.42A.583.583,0,0,0,236.99,37.77Z" transform="translate(-84.51 -4.662)" fill="#fff"/>
    <path id="Path_5" data-name="Path 5" d="M237.014,50.43h-2.444a.605.605,0,0,0-.424.168.562.562,0,0,0-.181.432V62.31a.561.561,0,0,0,.181.432.605.605,0,0,0,.424.168h2.444a.563.563,0,0,0,.412-.168.582.582,0,0,0,.17-.432V51.03a.583.583,0,0,0-.17-.432A.563.563,0,0,0,237.014,50.43Z" transform="translate(-84.582 -12.258)" fill="#fff"/>
    <path id="Path_6" data-name="Path 6" d="M255.428,55.974a7.784,7.784,0,0,0-2.614-.864,14.549,14.549,0,0,1-2.07-.5,1.928,1.928,0,0,1-.884-.528,1.013,1.013,0,0,1-.218-.624,1.088,1.088,0,0,1,.424-.876,1.841,1.841,0,0,1,1.2-.348,2.533,2.533,0,0,1,1.065.192,3.02,3.02,0,0,1,.714.456,3.779,3.779,0,0,0,.593.432.634.634,0,0,0,.169.12.475.475,0,0,0,.218.048h2.154a.535.535,0,0,0,.387-.168.511.511,0,0,0,.145-.432,1.9,1.9,0,0,0-.375-.9,4.234,4.234,0,0,0-1.029-1.008,5.973,5.973,0,0,0-1.682-.816,7.623,7.623,0,0,0-2.336-.324,6.633,6.633,0,0,0-2.9.564,4.387,4.387,0,0,0-1.755,1.428,3.136,3.136,0,0,0-.593,1.8,3.249,3.249,0,0,0,.46,1.764,3.473,3.473,0,0,0,1.38,1.212,9.023,9.023,0,0,0,2.227.768,18.756,18.756,0,0,1,2.082.528,2.167,2.167,0,0,1,.944.528,1.083,1.083,0,0,1,.242.72,1.02,1.02,0,0,1-.545.924,2.587,2.587,0,0,1-1.343.324,2.89,2.89,0,0,1-1.114-.192,3,3,0,0,1-.787-.468q-.327-.275-.641-.492a.542.542,0,0,0-.157-.12.441.441,0,0,0-.157-.024h-2.348a.594.594,0,0,0-.387.168.48.48,0,0,0-.169.432,1.991,1.991,0,0,0,.351.876,4.023,4.023,0,0,0,.992,1.02,5.862,5.862,0,0,0,1.742.852,8.445,8.445,0,0,0,2.578.348,9.119,9.119,0,0,0,3.195-.492,4.294,4.294,0,0,0,1.973-1.368,3.223,3.223,0,0,0,.666-2,3.336,3.336,0,0,0-.412-1.62A3.612,3.612,0,0,0,255.428,55.974Z" transform="translate(-91.594 -11.898)" fill="#fff"/>
    <path id="Path_7" data-name="Path 7" d="M289.146,39.2a.592.592,0,0,0-.436-.168h-2.493a.593.593,0,0,0-.436.168.582.582,0,0,0-.169.432v5.208a4.543,4.543,0,0,0-1.477-1.068,5.048,5.048,0,0,0-2.154-.42,5.341,5.341,0,0,0-2.167.42,4.359,4.359,0,0,0-1.6,1.176,5.45,5.45,0,0,0-.992,1.788,8.011,8.011,0,0,0-.4,2.28q-.025.432-.024.8t.024.828a9.165,9.165,0,0,0,.412,2.316,5.136,5.136,0,0,0,.992,1.8,4.257,4.257,0,0,0,1.6,1.152,5.527,5.527,0,0,0,2.154.4,5.046,5.046,0,0,0,2.3-.468,4.815,4.815,0,0,0,1.525-1.188v.816a.581.581,0,0,0,.169.432.562.562,0,0,0,.411.168h2.324a.592.592,0,0,0,.436-.168.581.581,0,0,0,.169-.432V39.63A.582.582,0,0,0,289.146,39.2Zm-3.534,11.448a3.888,3.888,0,0,1-.278,1.344,2.4,2.4,0,0,1-.8,1.032,2.343,2.343,0,0,1-1.44.408,2.384,2.384,0,0,1-1.452-.4,2.175,2.175,0,0,1-.763-1.044,5.178,5.178,0,0,1-.278-1.416,11.431,11.431,0,0,1,0-1.488,5.178,5.178,0,0,1,.278-1.416,2.175,2.175,0,0,1,.763-1.044,2.384,2.384,0,0,1,1.452-.4,2.351,2.351,0,0,1,1.4.384,2.5,2.5,0,0,1,.811.972,3.2,3.2,0,0,1,.3,1.26,7.967,7.967,0,0,1,.048.888A8.624,8.624,0,0,1,285.612,50.646Z" transform="translate(-110.137 -5.418)" fill="#fff"/>
  </g>
</svg>
