<svg id="Group_30614" data-name="Group 30614" xmlns="http://www.w3.org/2000/svg" width="252.06" height="44.922" viewBox="0 0 252.06 44.922">
  <path id="Path_28971" data-name="Path 28971" d="M69.849,30H42.6a9.034,9.034,0,0,0-9.084,8.984V65.937A9.034,9.034,0,0,0,42.6,74.922H69.849a9.108,9.108,0,0,0,6.03-2.266,8.919,8.919,0,0,0,3.054-6.719V38.984A9.035,9.035,0,0,0,69.849,30ZM71.8,34.929l.015.007c.045.021.088.043.131.066l.065.033.092.052c.033.019.066.037.1.056a4.479,4.479,0,0,1,2.176,4.187,4.529,4.529,0,1,1-2.577-4.4Zm-9.817-.436a8.86,8.86,0,0,0-1.219,4.492h0a9.035,9.035,0,0,0,9.084,8.984h0a9.116,9.116,0,0,0,4.543-1.205V63.942a1.01,1.01,0,0,1-1.614.8L58.04,53.808a4.5,4.5,0,0,1-1.817-3.594V38.984a4.517,4.517,0,0,1,4.542-4.492ZM42.6,70.429a4.517,4.517,0,0,1-4.542-4.492V38.984A4.517,4.517,0,0,1,42.6,34.492h1.216A8.862,8.862,0,0,0,42.6,38.984V59.133a8.956,8.956,0,0,0,3.83,7.33l5.658,3.967Zm18.79,0A4.548,4.548,0,0,1,58.76,69.6l-9.706-6.8a4.482,4.482,0,0,1-1.915-3.664V38.984a4.517,4.517,0,0,1,4.542-4.492H52.9a8.862,8.862,0,0,0-1.216,4.492v11.23A8.952,8.952,0,0,0,55.314,57.4L70.456,68.633a1,1,0,0,1-.583,1.8H61.387Z" transform="translate(-33.513 -30)" fill="#0e0e0e"/>
  <g id="Group_30613" data-name="Group 30613" transform="translate(54.833 5.817)">
    <path id="Path_28972" data-name="Path 28972" d="M125.479,58.407a9.515,9.515,0,0,0,4.269-3.279,9.115,9.115,0,0,0,1.59-5.48,8.914,8.914,0,0,0-3.269-7.435Q124.8,39.63,119.12,39.63H107.038a1.059,1.059,0,0,0-.772.314,1.088,1.088,0,0,0-.318.809v29.2a1.087,1.087,0,0,0,.318.809,1.056,1.056,0,0,0,.772.314h5a1.113,1.113,0,0,0,.818-.314,1.09,1.09,0,0,0,.318-.809V59.575h5.5l5.54,10.287a3.374,3.374,0,0,0,.59.786,1.625,1.625,0,0,0,1.226.427h5.087a.917.917,0,0,0,.659-.292.9.9,0,0,0,.3-.651,1.108,1.108,0,0,0-.136-.494Zm-2.794-5.66a5.2,5.2,0,0,1-3.656,1.123H113.17V45.245h5.859a5.059,5.059,0,0,1,3.68,1.168,4.285,4.285,0,0,1,1.18,3.189A4.09,4.09,0,0,1,122.685,52.747Z" transform="translate(-105.948 -38.237)" fill="#0e0e0e"/>
    <path id="Path_28973" data-name="Path 28973" d="M161.313,52.391A8.431,8.431,0,0,0,158.02,50.5a15.75,15.75,0,0,0-4.9-.674,14.194,14.194,0,0,0-4.656.674,10.21,10.21,0,0,0-3.157,1.685,7.635,7.635,0,0,0-1.817,2.044,3.762,3.762,0,0,0-.59,1.8.838.838,0,0,0,.227.7,1,1,0,0,0,.772.292h4.314a1.2,1.2,0,0,0,1.091-.584,4.091,4.091,0,0,1,1.385-1.527,4.279,4.279,0,0,1,2.384-.584,3.64,3.64,0,0,1,2.862.943,4,4,0,0,1,.818,2.7v.809l-5.951.854a16.215,16.215,0,0,0-6.88,2.516,6.084,6.084,0,0,0-1.476,8.535,7.9,7.9,0,0,0,3.043,2.493,9.809,9.809,0,0,0,4.315.921,10.58,10.58,0,0,0,3.247-.449,8.231,8.231,0,0,0,2.385-1.19,6.92,6.92,0,0,0,1.59-1.595v1.662a1.087,1.087,0,0,0,.318.809,1.055,1.055,0,0,0,.772.314h4.5a1.06,1.06,0,0,0,.772-.314,1.089,1.089,0,0,0,.317-.809V58.635a10.173,10.173,0,0,0-.568-3.437A7.275,7.275,0,0,0,161.313,52.391ZM156.84,63.576a7.023,7.023,0,0,1-.682,3.279,4.446,4.446,0,0,1-1.861,1.932,5.615,5.615,0,0,1-2.681.629,4.774,4.774,0,0,1-1.793-.337,3.453,3.453,0,0,1-1.363-.943,2.162,2.162,0,0,1-.522-1.46,2.37,2.37,0,0,1,1.135-1.977,8.744,8.744,0,0,1,3.543-1.213l4.224-.674Z" transform="translate(-114.54 -40.801)" fill="#0e0e0e"/>
    <path id="Path_28974" data-name="Path 28974" d="M181.02,50.43h-4.587a1.137,1.137,0,0,0-.8.314,1.05,1.05,0,0,0-.34.809V72.666a1.049,1.049,0,0,0,.34.809,1.137,1.137,0,0,0,.8.314h4.587a1.058,1.058,0,0,0,.772-.314,1.088,1.088,0,0,0,.319-.809V51.553a1.089,1.089,0,0,0-.319-.809A1.058,1.058,0,0,0,181.02,50.43Z" transform="translate(-122.8 -40.952)" fill="#0e0e0e"/>
    <path id="Path_28975" data-name="Path 28975" d="M181.082,37.77h-4.814a1.021,1.021,0,0,0-.772.337,1.111,1.111,0,0,0-.318.786v3.639a1.087,1.087,0,0,0,.318.809,1.056,1.056,0,0,0,.772.314h4.814a1.135,1.135,0,0,0,.795-.314,1.05,1.05,0,0,0,.341-.809V38.893a1.073,1.073,0,0,0-.341-.786A1.1,1.1,0,0,0,181.082,37.77Z" transform="translate(-122.771 -37.77)" fill="#0e0e0e"/>
    <path id="Path_28976" data-name="Path 28976" d="M205.271,61.33a14.631,14.631,0,0,0-4.9-1.617,27.353,27.353,0,0,1-3.883-.943,3.618,3.618,0,0,1-1.659-.988,1.892,1.892,0,0,1-.409-1.168,2.034,2.034,0,0,1,.795-1.64,3.46,3.46,0,0,1,2.248-.651,4.762,4.762,0,0,1,2,.359,5.669,5.669,0,0,1,1.34.854,7.088,7.088,0,0,0,1.114.809,1.2,1.2,0,0,0,.317.225.9.9,0,0,0,.41.09h4.042a1.006,1.006,0,0,0,.727-.314.955.955,0,0,0,.273-.809,3.559,3.559,0,0,0-.7-1.685,7.934,7.934,0,0,0-1.93-1.887,11.217,11.217,0,0,0-3.157-1.527,14.335,14.335,0,0,0-4.383-.606,12.472,12.472,0,0,0-5.45,1.056,8.226,8.226,0,0,0-3.293,2.673,5.86,5.86,0,0,0-1.113,3.369,6.07,6.07,0,0,0,.863,3.3A6.511,6.511,0,0,0,191.1,62.5a16.957,16.957,0,0,0,4.179,1.437,35.255,35.255,0,0,1,3.906.988,4.068,4.068,0,0,1,1.771.988,2.024,2.024,0,0,1,.454,1.348,1.908,1.908,0,0,1-1.022,1.729,4.864,4.864,0,0,1-2.521.606,5.434,5.434,0,0,1-2.089-.359,5.633,5.633,0,0,1-1.476-.876q-.613-.515-1.2-.921a1.017,1.017,0,0,0-.3-.225.829.829,0,0,0-.295-.045H188.1a1.116,1.116,0,0,0-.727.314.9.9,0,0,0-.318.809,3.722,3.722,0,0,0,.659,1.64,7.54,7.54,0,0,0,1.862,1.909,11.01,11.01,0,0,0,3.269,1.595,15.881,15.881,0,0,0,4.837.651,17.15,17.15,0,0,0,6-.921,8.056,8.056,0,0,0,3.7-2.561,6.023,6.023,0,0,0,1.249-3.751,6.233,6.233,0,0,0-.772-3.032A6.77,6.77,0,0,0,205.271,61.33Z" transform="translate(-125.657 -40.801)" fill="#0e0e0e"/>
    <path id="Path_28977" data-name="Path 28977" d="M240.482,39.03H235.8a1.115,1.115,0,0,0-.818.314,1.088,1.088,0,0,0-.318.809V49.9a8.513,8.513,0,0,0-2.77-2,9.492,9.492,0,0,0-4.043-.786,10.039,10.039,0,0,0-4.064.786,8.177,8.177,0,0,0-3,2.2,10.194,10.194,0,0,0-1.862,3.347,14.96,14.96,0,0,0-.749,4.268q-.047.809-.045,1.5t.045,1.55a17.119,17.119,0,0,0,.772,4.335,9.609,9.609,0,0,0,1.862,3.369,7.987,7.987,0,0,0,3,2.156,10.389,10.389,0,0,0,4.042.741,9.488,9.488,0,0,0,4.316-.876,9.032,9.032,0,0,0,2.861-2.224V69.8a1.087,1.087,0,0,0,.318.809,1.055,1.055,0,0,0,.771.314h4.361a1.113,1.113,0,0,0,.818-.314,1.087,1.087,0,0,0,.318-.809V40.153a1.088,1.088,0,0,0-.318-.809A1.113,1.113,0,0,0,240.482,39.03Zm-5.814,21.742a7.245,7.245,0,0,1-.522,2.516,4.486,4.486,0,0,1-1.5,1.932,4.405,4.405,0,0,1-2.7.764,4.482,4.482,0,0,1-2.725-.741,4.072,4.072,0,0,1-1.431-1.954,9.672,9.672,0,0,1-.522-2.65,21.094,21.094,0,0,1,0-2.785,9.672,9.672,0,0,1,.522-2.65,4.072,4.072,0,0,1,1.431-1.954,4.482,4.482,0,0,1,2.725-.741,4.419,4.419,0,0,1,2.634.719,4.673,4.673,0,0,1,1.521,1.819,5.944,5.944,0,0,1,.568,2.358,14.7,14.7,0,0,1,.092,1.662A15.912,15.912,0,0,1,234.667,60.772Z" transform="translate(-133.21 -38.087)" fill="#0e0e0e"/>
    <path id="Path_28978" data-name="Path 28978" d="M259.715,71.85h-5.132a1.073,1.073,0,0,0-.818.337,1.111,1.111,0,0,0-.318.786v5.076a1.087,1.087,0,0,0,.318.809,1.112,1.112,0,0,0,.818.314h5.132a1.135,1.135,0,0,0,.795-.314,1.05,1.05,0,0,0,.341-.809V72.973a1.073,1.073,0,0,0-.341-.786A1.1,1.1,0,0,0,259.715,71.85Z" transform="translate(-141.791 -46.335)" fill="#0e0e0e"/>
    <path id="Path_28979" data-name="Path 28979" d="M285.415,51.38a12.128,12.128,0,0,0-6.4-1.55,12.7,12.7,0,0,0-5.95,1.325,9.463,9.463,0,0,0-3.951,3.818,13.467,13.467,0,0,0-1.591,6v1.887q.182,5.48,3.247,8.355a11.632,11.632,0,0,0,8.29,2.875,14.715,14.715,0,0,0,4.656-.674,12.049,12.049,0,0,0,3.384-1.685,8.6,8.6,0,0,0,2.066-2.066,3.886,3.886,0,0,0,.749-1.819.749.749,0,0,0-.25-.674,1.007,1.007,0,0,0-.7-.27h-4.815a1.921,1.921,0,0,0-.749.112,2.218,2.218,0,0,0-.659.606,5.02,5.02,0,0,1-.7.741,4.855,4.855,0,0,1-1.2.764,4.311,4.311,0,0,1-1.816.337,3.91,3.91,0,0,1-2.385-.719,4.448,4.448,0,0,1-1.477-1.909,7.314,7.314,0,0,1-.544-2.628V63.89h14.806a1.073,1.073,0,0,0,.818-.337,1.109,1.109,0,0,0,.318-.786V61.734a13.889,13.889,0,0,0-1.294-6.132A9.906,9.906,0,0,0,285.415,51.38Zm-1.953,8.378h-8.857v-.135a6.824,6.824,0,0,1,.522-2.763,4.305,4.305,0,0,1,1.5-1.864,4.1,4.1,0,0,1,2.385-.674,4.207,4.207,0,0,1,2.407.674,4.254,4.254,0,0,1,1.522,1.864,6.836,6.836,0,0,1,.522,2.763Z" transform="translate(-145.21 -40.801)" fill="#259660"/>
    <path id="Path_28980" data-name="Path 28980" d="M322.862,39.03h-4.679a1.115,1.115,0,0,0-.818.314,1.088,1.088,0,0,0-.318.809V49.9a8.521,8.521,0,0,0-2.77-2,9.494,9.494,0,0,0-4.043-.786,10.039,10.039,0,0,0-4.064.786,8.178,8.178,0,0,0-3,2.2,10.182,10.182,0,0,0-1.862,3.347,14.963,14.963,0,0,0-.749,4.268q-.047.809-.045,1.5t.045,1.55a17.123,17.123,0,0,0,.772,4.335,9.6,9.6,0,0,0,1.862,3.369,7.987,7.987,0,0,0,3,2.156,10.388,10.388,0,0,0,4.042.741,9.488,9.488,0,0,0,4.316-.876,9.031,9.031,0,0,0,2.861-2.224V69.8a1.084,1.084,0,0,0,.318.809,1.055,1.055,0,0,0,.771.314h4.361a1.115,1.115,0,0,0,.818-.314A1.09,1.09,0,0,0,324,69.8V40.153a1.091,1.091,0,0,0-.318-.809A1.115,1.115,0,0,0,322.862,39.03Zm-5.814,21.742a7.246,7.246,0,0,1-.522,2.516,4.482,4.482,0,0,1-1.5,1.932,4.4,4.4,0,0,1-2.7.764,4.48,4.48,0,0,1-2.725-.741,4.072,4.072,0,0,1-1.431-1.954,9.7,9.7,0,0,1-.523-2.65,21.386,21.386,0,0,1,0-2.785,9.7,9.7,0,0,1,.523-2.65,4.072,4.072,0,0,1,1.431-1.954,4.48,4.48,0,0,1,2.725-.741,4.419,4.419,0,0,1,2.634.719,4.685,4.685,0,0,1,1.521,1.819,5.945,5.945,0,0,1,.568,2.358,14.885,14.885,0,0,1,.091,1.662A16.111,16.111,0,0,1,317.047,60.772Z" transform="translate(-153.229 -38.087)" fill="#259660"/>
    <path id="Path_28981" data-name="Path 28981" d="M358.719,50.744a1.058,1.058,0,0,0-.772-.314h-4.815a1.112,1.112,0,0,0-.817.314,1.088,1.088,0,0,0-.319.809V63.817a5.188,5.188,0,0,1-1.248,3.706,4.429,4.429,0,0,1-3.384,1.325q-4.452,0-4.452-5.031V51.553a1.088,1.088,0,0,0-.318-.809,1.057,1.057,0,0,0-.771-.314h-4.86a1.135,1.135,0,0,0-.795.314,1.048,1.048,0,0,0-.341.809V64.086a12.191,12.191,0,0,0,1.135,5.5,8.1,8.1,0,0,0,3.157,3.459,9.006,9.006,0,0,0,4.655,1.19,10.873,10.873,0,0,0,4.542-.854,7.642,7.642,0,0,0,3.043-2.471v1.752a1.087,1.087,0,0,0,.318.809,1.056,1.056,0,0,0,.772.314h4.5a1.058,1.058,0,0,0,.772-.314,1.087,1.087,0,0,0,.318-.809V51.553A1.088,1.088,0,0,0,358.719,50.744Z" transform="translate(-161.81 -40.952)" fill="#259660"/>
  </g>
</svg>
