<svg xmlns="http://www.w3.org/2000/svg" width="215.424" height="43.405" viewBox="0 0 215.424 43.405">
  <g id="Group_30666" data-name="Group 30666" transform="translate(-51.106 -30)">
    <path id="Path_29006" data-name="Path 29006" d="M85.83,30H59.787a8.681,8.681,0,0,0-8.681,8.681V64.724A8.681,8.681,0,0,0,59.787,73.4H85.83a8.682,8.682,0,0,0,8.681-8.681V38.681A8.681,8.681,0,0,0,85.83,30Zm1.865,4.762.015.007c.042.02.083.042.124.064l.062.032.088.051.094.054a4.33,4.33,0,1,1-.384-.208Zm-9.382-.422a8.633,8.633,0,0,0-1.164,4.34h0a8.681,8.681,0,0,0,8.681,8.681h0A8.638,8.638,0,0,0,90.17,46.2V62.8a.964.964,0,0,1-1.542.771L74.545,53a4.36,4.36,0,0,1-1.736-3.472V38.681a4.34,4.34,0,0,1,4.34-4.34ZM59.787,69.064a4.34,4.34,0,0,1-4.34-4.34V38.681a4.34,4.34,0,0,1,4.34-4.34h1.162a8.635,8.635,0,0,0-1.162,4.34V58.149a8.682,8.682,0,0,0,3.66,7.082l5.407,3.833Zm17.957,0a4.313,4.313,0,0,1-2.51-.8L65.958,61.69a4.345,4.345,0,0,1-1.83-3.54V38.681a4.34,4.34,0,0,1,4.34-4.34H69.63a8.636,8.636,0,0,0-1.162,4.34V49.532a8.681,8.681,0,0,0,3.472,6.945L86.41,67.329a.963.963,0,0,1-.557,1.735H77.744Z" transform="translate(0)" fill="#030504"/>
    <g id="Group_30666-2" data-name="Group 30666" transform="translate(103.506 35.621)">
      <path id="Path_29007" data-name="Path 29007" d="M293.12,56.124a3.863,3.863,0,0,1,3.06-1.259,4.145,4.145,0,0,1,2.388.651,4.367,4.367,0,0,1,1.519,2.17,2.108,2.108,0,0,0,.456.694,1.031,1.031,0,0,0,.715.216H305.9a1.155,1.155,0,0,0,.781-.3.877.877,0,0,0,.3-.782,5.85,5.85,0,0,0-.695-2.3,9.271,9.271,0,0,0-1.952-2.539A10.238,10.238,0,0,0,301,50.633a13.4,13.4,0,0,0-4.9-.8A12.861,12.861,0,0,0,290.451,51a8.868,8.868,0,0,0-3.8,3.407,11.074,11.074,0,0,0-1.5,5.4q-.044.694-.043,1.758t.043,1.758a10.831,10.831,0,0,0,1.519,5.361,9.019,9.019,0,0,0,3.8,3.407,12.7,12.7,0,0,0,5.621,1.172,14.427,14.427,0,0,0,4.145-.543,10.542,10.542,0,0,0,3.06-1.432,9.5,9.5,0,0,0,2.061-1.932,8.411,8.411,0,0,0,1.194-2.04,5.83,5.83,0,0,0,.433-1.736.876.876,0,0,0-.3-.781,1.156,1.156,0,0,0-.781-.3h-4.644a1.034,1.034,0,0,0-.715.216,2.12,2.12,0,0,0-.456.7,4.5,4.5,0,0,1-1.476,2.17,4.108,4.108,0,0,1-2.431.651,3.931,3.931,0,0,1-3.06-1.215,6,6,0,0,1-1.194-3.906,27.309,27.309,0,0,1,0-3.082A6.12,6.12,0,0,1,293.12,56.124Z" transform="translate(-168.23 -41.106)" fill="#0077b6"/>
      <path id="Path_29008" data-name="Path 29008" d="M340.287,59.6a10.982,10.982,0,0,0-1.519-5.188,8.948,8.948,0,0,0-3.776-3.385,15.086,15.086,0,0,0-11.763,0,8.939,8.939,0,0,0-3.776,3.385,10.625,10.625,0,0,0-1.476,5.188q-.043.825-.043,1.932t.043,1.975a11.14,11.14,0,0,0,1.411,5.165,8.488,8.488,0,0,0,3.711,3.407,15.735,15.735,0,0,0,12.023,0,8.493,8.493,0,0,0,3.711-3.407,11.53,11.53,0,0,0,1.454-5.165q.043-.868.043-1.975T340.287,59.6Zm-6.771,3.689a6.548,6.548,0,0,1-1.194,3.864,3.88,3.88,0,0,1-3.19,1.3,3.943,3.943,0,0,1-3.212-1.3,6.448,6.448,0,0,1-1.215-3.864q-.043-.65-.043-1.735t.043-1.736a6.48,6.48,0,0,1,1.215-3.841,3.91,3.91,0,0,1,3.212-1.324,3.848,3.848,0,0,1,3.19,1.324,6.581,6.581,0,0,1,1.194,3.841q.042.651.043,1.736T333.516,63.285Z" transform="translate(-177.308 -41.106)" fill="#0077b6"/>
      <path id="Path_29009" data-name="Path 29009" d="M142.206,57.773a9.112,9.112,0,0,0,4.08-3.169,8.882,8.882,0,0,0,1.518-5.3,8.654,8.654,0,0,0-3.124-7.183q-3.126-2.5-8.551-2.5H124.583a1.007,1.007,0,0,0-.739.3,1.058,1.058,0,0,0-.3.781V68.928a1.056,1.056,0,0,0,.3.781,1,1,0,0,0,.739.3h4.774a1.041,1.041,0,0,0,1.085-1.085V58.9H135.7l5.295,9.94a3.258,3.258,0,0,0,.564.76,1.544,1.544,0,0,0,1.173.412h4.861a.969.969,0,0,0,.911-.911,1.071,1.071,0,0,0-.13-.477Zm-2.67-5.469a4.931,4.931,0,0,1-3.494,1.085h-5.6V45.056h5.6a4.8,4.8,0,0,1,3.516,1.129,4.167,4.167,0,0,1,1.128,3.082A3.975,3.975,0,0,1,139.536,52.3Z" transform="translate(-123.541 -38.284)" fill="#1a1818"/>
      <path id="Path_29010" data-name="Path 29010" d="M178.019,52.3a8.035,8.035,0,0,0-3.147-1.823,14.9,14.9,0,0,0-4.688-.651,13.427,13.427,0,0,0-4.449.651,9.732,9.732,0,0,0-3.017,1.628,7.352,7.352,0,0,0-1.736,1.975,3.663,3.663,0,0,0-.564,1.736.815.815,0,0,0,.217.673.953.953,0,0,0,.738.282H165.5a1.144,1.144,0,0,0,1.042-.564,3.943,3.943,0,0,1,1.324-1.476,4.055,4.055,0,0,1,2.279-.564,3.455,3.455,0,0,1,2.734.912,3.888,3.888,0,0,1,.781,2.6v.781l-5.686.825a15.4,15.4,0,0,0-6.576,2.431,5.922,5.922,0,0,0-1.41,8.247,7.565,7.565,0,0,0,2.907,2.409,9.287,9.287,0,0,0,4.123.89,10,10,0,0,0,3.1-.434,7.832,7.832,0,0,0,2.279-1.15,6.637,6.637,0,0,0,1.519-1.541v1.606a1.056,1.056,0,0,0,.3.781,1,1,0,0,0,.738.3h4.3a1.006,1.006,0,0,0,.738-.3,1.059,1.059,0,0,0,.3-.781V58.337a9.929,9.929,0,0,0-.543-3.32A7.04,7.04,0,0,0,178.019,52.3Zm-4.275,10.808a6.859,6.859,0,0,1-.651,3.169,4.28,4.28,0,0,1-1.78,1.866,5.315,5.315,0,0,1-2.561.608,4.513,4.513,0,0,1-1.714-.326,3.3,3.3,0,0,1-1.3-.911,2.1,2.1,0,0,1-.5-1.411,2.3,2.3,0,0,1,1.085-1.91,8.3,8.3,0,0,1,3.386-1.172l4.037-.651Z" transform="translate(-133.321 -41.106)" fill="#1a1818"/>
      <path id="Path_29011" data-name="Path 29011" d="M198.359,50.43h-4.383a1.08,1.08,0,0,0-.76.3,1.02,1.02,0,0,0-.325.781v20.4a1.019,1.019,0,0,0,.325.781,1.08,1.08,0,0,0,.76.3h4.383a1,1,0,0,0,.738-.3,1.057,1.057,0,0,0,.3-.781v-20.4a1.058,1.058,0,0,0-.3-.781A1,1,0,0,0,198.359,50.43Z" transform="translate(-142.722 -41.272)" fill="#1a1818"/>
      <path id="Path_29012" data-name="Path 29012" d="M198.413,37.77h-4.6a.969.969,0,0,0-.737.326,1.076,1.076,0,0,0-.3.76v3.516a1.054,1.054,0,0,0,.3.781,1,1,0,0,0,.737.3h4.6a1.078,1.078,0,0,0,.76-.3,1.02,1.02,0,0,0,.326-.781V38.855a1.113,1.113,0,0,0-1.085-1.085Z" transform="translate(-142.689 -37.77)" fill="#1a1818"/>
      <path id="Path_29013" data-name="Path 29013" d="M222.056,60.942a13.871,13.871,0,0,0-4.687-1.563,25.9,25.9,0,0,1-3.711-.911,3.452,3.452,0,0,1-1.585-.955,1.841,1.841,0,0,1-.391-1.129,1.973,1.973,0,0,1,.76-1.584,3.282,3.282,0,0,1,2.149-.629,4.507,4.507,0,0,1,1.91.347,5.41,5.41,0,0,1,1.28.825,6.779,6.779,0,0,0,1.064.781,1.136,1.136,0,0,0,.3.217.848.848,0,0,0,.391.087H223.4a.956.956,0,0,0,.694-.3.929.929,0,0,0,.26-.781,3.461,3.461,0,0,0-.673-1.628,7.609,7.609,0,0,0-1.845-1.823,10.661,10.661,0,0,0-3.017-1.476,13.557,13.557,0,0,0-4.189-.586,11.809,11.809,0,0,0-5.209,1.02,7.873,7.873,0,0,0-3.146,2.583,5.7,5.7,0,0,0-1.064,3.255,5.909,5.909,0,0,0,.825,3.19,6.237,6.237,0,0,0,2.473,2.192,16.086,16.086,0,0,0,3.993,1.389,33.389,33.389,0,0,1,3.733.955,3.873,3.873,0,0,1,1.693.955,1.969,1.969,0,0,1,.435,1.3,1.848,1.848,0,0,1-.977,1.671,4.605,4.605,0,0,1-2.409.586,5.142,5.142,0,0,1-2-.347,5.371,5.371,0,0,1-1.411-.846q-.586-.5-1.15-.89a.972.972,0,0,0-.282-.217.784.784,0,0,0-.281-.043h-4.211a1.058,1.058,0,0,0-.694.3.871.871,0,0,0-.3.781,3.608,3.608,0,0,0,.629,1.584,7.249,7.249,0,0,0,1.78,1.845,10.476,10.476,0,0,0,3.124,1.541,15.023,15.023,0,0,0,4.623.629,16.231,16.231,0,0,0,5.729-.89,7.7,7.7,0,0,0,3.537-2.474,5.862,5.862,0,0,0,1.194-3.624,6.076,6.076,0,0,0-.739-2.93A6.5,6.5,0,0,0,222.056,60.942Z" transform="translate(-145.974 -41.106)" fill="#1a1818"/>
      <path id="Path_29014" data-name="Path 29014" d="M257.083,39.03h-4.471a1.041,1.041,0,0,0-1.085,1.085v9.419A8.151,8.151,0,0,0,248.88,47.6a8.984,8.984,0,0,0-3.863-.76,9.5,9.5,0,0,0-3.884.76,7.809,7.809,0,0,0-2.865,2.127,9.855,9.855,0,0,0-1.78,3.234,14.6,14.6,0,0,0-.716,4.123q-.044.781-.043,1.454t.043,1.5a16.7,16.7,0,0,0,.738,4.189,9.315,9.315,0,0,0,1.78,3.255,7.636,7.636,0,0,0,2.865,2.083,9.835,9.835,0,0,0,3.863.716,8.982,8.982,0,0,0,4.123-.846,8.645,8.645,0,0,0,2.735-2.149v1.476a1.056,1.056,0,0,0,.3.781,1,1,0,0,0,.738.3h4.167a1.041,1.041,0,0,0,1.085-1.085V40.115a1.041,1.041,0,0,0-1.085-1.085Zm-5.556,21.008a7.067,7.067,0,0,1-.5,2.431,4.328,4.328,0,0,1-1.432,1.866,4.176,4.176,0,0,1-2.583.738,4.248,4.248,0,0,1-2.6-.716,3.933,3.933,0,0,1-1.367-1.888,9.436,9.436,0,0,1-.5-2.561,20.882,20.882,0,0,1,0-2.691,9.436,9.436,0,0,1,.5-2.561,3.933,3.933,0,0,1,1.367-1.888,4.248,4.248,0,0,1,2.6-.716,4.189,4.189,0,0,1,2.517.694,4.512,4.512,0,0,1,1.454,1.758,5.8,5.8,0,0,1,.543,2.279,14.54,14.54,0,0,1,.087,1.606A15.737,15.737,0,0,1,251.527,60.038Z" transform="translate(-154.57 -38.118)" fill="#1a1818"/>
      <path id="Path_29015" data-name="Path 29015" d="M277.031,71.85h-4.905a1.021,1.021,0,0,0-.781.326,1.079,1.079,0,0,0-.3.76v4.9a1.041,1.041,0,0,0,1.085,1.085h4.905a1.077,1.077,0,0,0,.759-.3,1.02,1.02,0,0,0,.326-.781v-4.9a1.114,1.114,0,0,0-1.085-1.085Z" transform="translate(-164.337 -47.196)" fill="#1a1818"/>
    </g>
  </g>
</svg>
